<svg width="24" height="24" viewBox="0 0 24 24" fill="none" xmlns="http://www.w3.org/2000/svg" >
<path fill-rule="evenodd" clip-rule="evenodd" d="M11.4689 1.71888C11.5385 1.64903 11.6213 1.59362 11.7124 1.55581C11.8035 1.518 11.9012 1.49854 11.9999 1.49854C12.0985 1.49854 12.1962 1.518 12.2873 1.55581C12.3784 1.59362 12.4612 1.64903 12.5309 1.71888L21.5309 10.7189C21.6005 10.7887 21.6557 10.8715 21.6932 10.9626C21.7308 11.0537 21.7501 11.1513 21.7499 11.2499V21.7499C21.7499 21.9488 21.6709 22.1396 21.5302 22.2802C21.3896 22.4209 21.1988 22.4999 20.9999 22.4999H14.2499C14.051 22.4999 13.8602 22.4209 13.7195 22.2802C13.5789 22.1396 13.4999 21.9488 13.4999 21.7499V15.7499H10.4999V21.7499C10.4999 21.9488 10.4209 22.1396 10.2802 22.2802C10.1396 22.4209 9.94879 22.4999 9.74988 22.4999H2.99988C2.80097 22.4999 2.6102 22.4209 2.46955 22.2802C2.3289 22.1396 2.24988 21.9488 2.24988 21.7499V11.2499C2.2497 11.1513 2.26895 11.0537 2.30653 10.9626C2.34411 10.8715 2.39928 10.7887 2.46888 10.7189L11.4689 1.71888ZM3.74988 11.5604V20.9999H8.99988V14.9999C8.99988 14.801 9.0789 14.6102 9.21955 14.4695C9.3602 14.3289 9.55097 14.2499 9.74988 14.2499H14.2499C14.4488 14.2499 14.6396 14.3289 14.7802 14.4695C14.9209 14.6102 14.9999 14.801 14.9999 14.9999V20.9999H20.2499V11.5604L11.9999 3.31038L3.74988 11.5604Z" fill="#6C757D"/>
<path fill-rule="evenodd" clip-rule="evenodd" d="M19.4999 3.75V9L16.4999 6V3.75C16.4999 3.55109 16.5789 3.36032 16.7195 3.21967C16.8602 3.07902 17.051 3 17.2499 3H18.7499C18.9488 3 19.1396 3.07902 19.2802 3.21967C19.4209 3.36032 19.4999 3.55109 19.4999 3.75Z" fill="#6C757D"/>
</svg>
