<svg width="24" height="24" viewBox="0 0 24 24" fill="none" xmlns="http://www.w3.org/2000/svg">
<g clip-path="url(#clip0_124_1433)">
<path fill-rule="evenodd" clip-rule="evenodd" d="M20.9999 1.5H2.99988C2.60205 1.5 2.22052 1.65804 1.93922 1.93934C1.65791 2.22064 1.49988 2.60218 1.49988 3V21C1.49988 21.3978 1.65791 21.7794 1.93922 22.0607C2.22052 22.342 2.60205 22.5 2.99988 22.5H20.9999C21.3977 22.5 21.7792 22.342 22.0605 22.0607C22.3418 21.7794 22.4999 21.3978 22.4999 21V3C22.4999 2.60218 22.3418 2.22064 22.0605 1.93934C21.7792 1.65804 21.3977 1.5 20.9999 1.5ZM2.99988 0C2.20423 0 1.44117 0.316071 0.878558 0.87868C0.315948 1.44129 -0.00012207 2.20435 -0.00012207 3L-0.00012207 21C-0.00012207 21.7956 0.315948 22.5587 0.878558 23.1213C1.44117 23.6839 2.20423 24 2.99988 24H20.9999C21.7955 24 22.5586 23.6839 23.1212 23.1213C23.6838 22.5587 23.9999 21.7956 23.9999 21V3C23.9999 2.20435 23.6838 1.44129 23.1212 0.87868C22.5586 0.316071 21.7955 0 20.9999 0L2.99988 0Z" fill="#6C757D"/>
<path fill-rule="evenodd" clip-rule="evenodd" d="M16.4999 22.5V6H17.9999V22.5H16.4999ZM23.2499 6H0.749878V4.5H23.2499V6ZM4.49988 9.75C4.49988 9.55109 4.5789 9.36032 4.71955 9.21967C4.8602 9.07902 5.05097 9 5.24988 9H12.7499C12.9488 9 13.1396 9.07902 13.2802 9.21967C13.4209 9.36032 13.4999 9.55109 13.4999 9.75C13.4999 9.94891 13.4209 10.1397 13.2802 10.2803C13.1396 10.421 12.9488 10.5 12.7499 10.5H5.24988C5.05097 10.5 4.8602 10.421 4.71955 10.2803C4.5789 10.1397 4.49988 9.94891 4.49988 9.75ZM4.49988 14.25C4.49988 14.0511 4.5789 13.8603 4.71955 13.7197C4.8602 13.579 5.05097 13.5 5.24988 13.5H12.7499C12.9488 13.5 13.1396 13.579 13.2802 13.7197C13.4209 13.8603 13.4999 14.0511 13.4999 14.25C13.4999 14.4489 13.4209 14.6397 13.2802 14.7803C13.1396 14.921 12.9488 15 12.7499 15H5.24988C5.05097 15 4.8602 14.921 4.71955 14.7803C4.5789 14.6397 4.49988 14.4489 4.49988 14.25ZM4.49988 18.75C4.49988 18.5511 4.5789 18.3603 4.71955 18.2197C4.8602 18.079 5.05097 18 5.24988 18H12.7499C12.9488 18 13.1396 18.079 13.2802 18.2197C13.4209 18.3603 13.4999 18.5511 13.4999 18.75C13.4999 18.9489 13.4209 19.1397 13.2802 19.2803C13.1396 19.421 12.9488 19.5 12.7499 19.5H5.24988C5.05097 19.5 4.8602 19.421 4.71955 19.2803C4.5789 19.1397 4.49988 18.9489 4.49988 18.75Z" fill="#6C757D"/>
</g>
<defs>
<clipPath id="clip0_124_1433">
<rect width="24" height="24" fill="white"/>
</clipPath>
</defs>
</svg>
