<svg width="24" height="24" viewBox="0 0 24 24" fill="none" xmlns="http://www.w3.org/2000/svg">
<g clip-path="url(#clip0_124_1436)">
<path d="M20.2008 18.555C19.1358 16.839 16.7913 15 11.9988 15C7.20631 15 4.86331 16.8375 3.79681 18.555C4.77944 19.7869 6.02719 20.7813 7.44723 21.4643C8.86727 22.1473 10.4231 22.5013 11.9988 22.5C13.5746 22.5013 15.1304 22.1473 16.5504 21.4643C17.9704 20.7813 19.2182 19.7869 20.2008 18.555Z" fill="#6C757D"/>
<path fill-rule="evenodd" clip-rule="evenodd" d="M11.9999 13.5C13.1934 13.5 14.3379 13.0259 15.1819 12.182C16.0258 11.3381 16.4999 10.1935 16.4999 9C16.4999 7.80653 16.0258 6.66193 15.1819 5.81802C14.3379 4.97411 13.1934 4.5 11.9999 4.5C10.8064 4.5 9.66181 4.97411 8.8179 5.81802C7.97398 6.66193 7.49988 7.80653 7.49988 9C7.49988 10.1935 7.97398 11.3381 8.8179 12.182C9.66181 13.0259 10.8064 13.5 11.9999 13.5Z" fill="#6C757D"/>
<path fill-rule="evenodd" clip-rule="evenodd" d="M11.9999 1.5C9.21511 1.5 6.54439 2.60625 4.57526 4.57538C2.60612 6.54451 1.49988 9.21523 1.49988 12C1.49988 14.7848 2.60612 17.4555 4.57526 19.4246C6.54439 21.3938 9.21511 22.5 11.9999 22.5C14.7847 22.5 17.4554 21.3938 19.4245 19.4246C21.3936 17.4555 22.4999 14.7848 22.4999 12C22.4999 9.21523 21.3936 6.54451 19.4245 4.57538C17.4554 2.60625 14.7847 1.5 11.9999 1.5ZM-0.00012207 12C-0.00012207 8.8174 1.26416 5.76516 3.5146 3.51472C5.76503 1.26428 8.81728 0 11.9999 0C15.1825 0 18.2347 1.26428 20.4852 3.51472C22.7356 5.76516 23.9999 8.8174 23.9999 12C23.9999 15.1826 22.7356 18.2348 20.4852 20.4853C18.2347 22.7357 15.1825 24 11.9999 24C8.81728 24 5.76503 22.7357 3.5146 20.4853C1.26416 18.2348 -0.00012207 15.1826 -0.00012207 12Z" fill="#6C757D"/>
</g>
<defs>
<clipPath id="clip0_124_1436">
<rect width="24" height="24" fill="white"/>
</clipPath>
</defs>
</svg>
